<svg width="30" height="31" viewBox="0 0 30 31" fill="none" xmlns="http://www.w3.org/2000/svg">
<g clip-path="url(#clip0_464_1755)">
<ellipse cx="15" cy="15.1556" rx="15" ry="15.1556" fill="white"/>
<path d="M16.5107 6.56368C16.3786 6.5392 15.7449 6.43237 15.0011 6.43237C14.2573 6.43237 13.6236 6.5392 13.4915 6.56368C13.4167 6.57704 13.3881 6.50136 13.4453 6.45908C13.4981 6.42124 15.0011 5.26163 15.0011 5.26163C15.0011 5.26163 16.5041 6.41901 16.5569 6.45908C16.6141 6.50359 16.5855 6.57704 16.5107 6.56368ZM13.9118 14.0778C13.9118 14.0778 13.8326 14.1067 13.8106 14.1779C14.1253 14.4227 14.3431 14.9792 15.0011 14.9792C15.6591 14.9792 15.8747 14.4227 16.1894 14.1779C16.1674 14.1067 16.0904 14.0778 16.0904 14.0778C16.0904 14.0778 15.6789 14.1757 15.0011 14.1757C14.3233 14.1757 13.9118 14.0778 13.9118 14.0778ZM15.0011 13.1407C14.8185 13.1407 14.7789 13.0695 14.6534 13.0717C14.5346 13.0717 14.3035 13.1674 14.2551 13.2565C14.2573 13.301 14.2749 13.341 14.3057 13.3767C14.572 13.4167 14.693 13.5681 15.0011 13.5681C15.3092 13.5681 15.4302 13.4189 15.6943 13.3767C15.7251 13.341 15.7427 13.301 15.7449 13.2565C15.6965 13.1674 15.4654 13.074 15.3466 13.0717C15.2234 13.0717 15.1816 13.1407 14.9989 13.1407M29.9846 16.0097C29.9648 16.3725 29.934 16.7331 29.89 17.0892C28.1912 17.3741 27.5816 15.8428 25.8432 15.9184C25.9466 16.2924 26.0302 16.673 26.0962 17.0602C27.5332 17.0602 28.1097 18.4157 29.7051 18.2176C29.6215 18.6316 29.5203 19.0411 29.4037 19.444C28.1406 19.5709 27.696 18.3 26.2371 18.3356C26.2481 18.547 26.2547 18.7585 26.2547 18.9721C26.2547 19.0923 26.2525 19.2103 26.2481 19.326C27.4936 19.3105 27.8985 20.4745 29.0868 20.4211C28.9371 20.8284 28.7721 21.2268 28.5895 21.6185C27.7357 21.5718 27.443 20.4656 26.1447 20.5524C26.105 20.8351 26.0566 21.1155 25.9972 21.3937C27.1261 21.3136 27.366 22.3642 28.1736 22.4465C27.9689 22.8271 27.7467 23.1966 27.5112 23.5549C27.0337 23.2967 26.6178 22.5133 25.7112 22.4643C25.8036 22.175 25.885 21.8812 25.9554 21.5807C25.15 21.5807 24.2302 21.2646 23.46 20.5524C23.7087 19.1124 21.4993 17.6456 21.4993 16.5906C21.4993 15.4466 22.0715 14.8122 22.0715 13.2676C22.0715 12.1213 21.5213 10.8794 20.6917 10.0292C20.5311 9.86445 20.366 9.7309 20.1768 9.61071C20.9382 10.5656 21.5257 11.6962 21.5257 13.0072C21.5257 14.4606 20.8568 15.2285 20.8568 16.5706C20.8568 17.9127 22.7976 19.0745 22.7976 20.4567C22.7976 21.002 22.626 21.534 22.0605 22.5778C22.9319 23.4592 24.0673 23.9378 24.7979 23.9378C25.0356 23.9378 25.1632 23.8643 25.249 23.6751C25.3217 23.5126 25.3921 23.3479 25.4581 23.181C26.2459 23.2122 26.609 23.9378 27.0447 24.2271C26.8048 24.5521 26.554 24.8659 26.2899 25.1708C25.9972 24.8414 25.6033 24.2894 25.029 24.1381C24.9256 24.3406 24.8155 24.5409 24.7011 24.7368C25.1962 24.8726 25.5373 25.38 25.7992 25.7117C25.5175 26.0077 25.2204 26.2926 24.9146 26.5663C24.7231 26.2659 24.4238 25.8808 24.0894 25.676C23.9661 25.8452 23.8385 26.0099 23.7043 26.1702C23.9881 26.366 24.2412 26.7155 24.4018 27.0004C24.0475 27.2897 23.6823 27.5612 23.3038 27.8172C23.1167 26.2748 21.035 25.2198 21.5961 23.4303C21.4135 23.7463 21.1934 24.1403 21.1934 24.6144C21.1934 25.9097 22.5556 26.9358 22.6656 28.2245C22.3817 28.3959 22.0935 28.5561 21.7986 28.7097C21.7502 27.2942 20.3044 25.7473 20.3044 24.5854C20.3044 23.2901 21.9834 21.9902 21.9834 20.4589C21.9834 18.9276 20.047 17.8682 20.047 16.5261C20.047 15.1839 20.87 14.4094 20.87 12.6889C20.87 11.4291 20.278 10.1516 19.3626 9.33695C19.1997 9.19228 19.0413 9.07654 18.8499 8.97638C19.7125 10.0225 20.212 10.9729 20.212 12.4129C20.212 14.031 19.2702 14.928 19.2702 16.5149C19.2702 18.1019 21.1692 18.981 21.1692 20.4567C21.1692 21.9324 19.4022 23.181 19.4022 24.6967C19.4022 26.0767 20.9602 27.4566 20.9844 29.0948C20.6433 29.2439 20.2978 29.3841 19.9435 29.5065C20.1416 27.8506 18.3877 26.1435 18.3877 24.7924C18.3877 23.3168 20.223 22.0481 20.223 20.4545C20.223 18.8609 18.3591 18.1219 18.3591 16.4882C18.3591 14.8545 19.5034 13.9487 19.5034 12.1436C19.5034 10.7369 18.8169 9.47049 17.8134 8.68703C17.7914 8.67145 17.7716 8.65365 17.7496 8.63807C17.655 8.56684 17.5779 8.65365 17.644 8.736C18.3547 9.63297 18.7332 10.5411 18.7332 11.8832C18.7332 13.5347 17.4195 14.8768 17.4195 16.4771C17.4195 18.3645 19.1843 18.9054 19.1843 20.4523C19.1843 21.9991 17.2919 23.2389 17.2919 24.8837C17.2919 26.4083 19.0831 28.1021 18.775 29.8626C18.4164 29.9561 18.0511 30.0385 17.6814 30.1053C18.0181 27.9151 16.2598 26.3393 16.2598 24.9059C16.2598 23.3524 18.2205 21.9702 18.2205 20.4523C18.2205 19.0233 16.8144 18.5559 16.6295 17.0914C16.6031 16.8933 16.4447 16.7442 16.2268 16.782C15.9407 16.8354 15.5755 17.0246 15.0011 17.0246C14.4268 17.0246 14.0593 16.8332 13.7732 16.782C13.5554 16.7442 13.3969 16.8933 13.3705 17.0914C13.1857 18.5559 11.7795 19.0233 11.7795 20.4523C11.7795 21.9702 13.738 23.3524 13.738 24.9059C13.738 26.3393 11.982 27.9129 12.3164 30.1053C11.9468 30.0385 11.5837 29.9561 11.225 29.8626C10.9169 28.1021 12.7081 26.4105 12.7081 24.8837C12.7081 23.2389 10.8157 22.0014 10.8157 20.4523C10.8157 18.9031 12.5805 18.3645 12.5805 16.4771C12.5805 14.8768 11.2668 13.5347 11.2668 11.8832C11.2668 10.5411 11.6453 9.63297 12.3561 8.736C12.4221 8.65142 12.3451 8.56684 12.2504 8.63807C12.2284 8.65365 12.2086 8.67145 12.1866 8.68703C11.1832 9.47049 10.4966 10.7369 10.4966 12.1436C10.4966 13.9487 11.6409 14.8545 11.6409 16.4882C11.6409 18.1219 9.77702 18.8631 9.77702 20.4545C9.77702 22.0459 11.6101 23.3145 11.6101 24.7924C11.6101 26.1435 9.85624 27.8506 10.0543 29.5065C9.7 29.3819 9.35452 29.2439 9.01343 29.0948C9.03764 27.4566 10.5956 26.0767 10.5956 24.6967C10.5956 23.1788 8.82859 21.9346 8.82859 20.4567C8.82859 18.9788 10.7277 18.0974 10.7277 16.5149C10.7277 14.9324 9.78362 14.031 9.78362 12.4129C9.78362 10.9729 10.2831 10.0225 11.1458 8.97638C10.9543 9.07654 10.7937 9.19228 10.633 9.33695C9.71761 10.1516 9.12566 11.4291 9.12566 12.6889C9.12566 14.4094 9.95086 15.1817 9.95086 16.5261C9.95086 17.8704 8.01659 18.9299 8.01659 20.4589C8.01659 21.988 9.6934 23.2901 9.6934 24.5854C9.6934 25.7473 8.24984 27.2942 8.19923 28.7097C7.90436 28.5584 7.61609 28.3959 7.33222 28.2245C7.44225 26.938 8.80438 25.9097 8.80438 24.6144C8.80438 24.1403 8.58433 23.7463 8.39948 23.4303C8.96062 25.2198 6.88111 26.277 6.69406 27.8172C6.31557 27.5612 5.94808 27.2897 5.59379 27.0004C5.75663 26.7155 6.00749 26.366 6.29136 26.1702C6.15933 26.0099 6.0295 25.8452 5.90847 25.676C5.57399 25.8808 5.27471 26.2659 5.08326 26.5663C4.77739 26.2926 4.48252 26.0077 4.20085 25.7117C4.46491 25.38 4.80379 24.8726 5.29892 24.7368C5.18449 24.5409 5.07446 24.3406 4.97104 24.1381C4.39449 24.2916 4.0028 24.8436 3.71013 25.1708C3.44606 24.8659 3.193 24.5521 2.95534 24.2271C3.39325 23.9378 3.75414 23.2122 4.54193 23.181C4.60795 23.3479 4.67616 23.5126 4.75098 23.6751C4.8368 23.8643 4.96443 23.9378 5.19989 23.9378C5.93267 23.9378 7.06815 23.457 7.93957 22.5778C7.37183 21.534 7.20019 21.002 7.20019 20.4567C7.20019 19.0745 9.14106 17.9127 9.14106 16.5706C9.14106 15.2285 8.4721 14.4606 8.4721 13.0072C8.4721 11.6962 9.05744 10.5656 9.82103 9.61071C9.63179 9.7309 9.46675 9.86445 9.30611 10.0292C8.4743 10.8794 7.92636 12.1213 7.92636 13.2676C7.92636 14.8122 8.49851 15.4466 8.49851 16.5906C8.49851 17.6456 6.28916 19.1124 6.54002 20.5524C5.76763 21.2624 4.84781 21.5807 4.04241 21.5807C4.11282 21.8812 4.19424 22.175 4.28667 22.4643C3.38004 22.5133 2.96414 23.2945 2.48662 23.5549C2.25117 23.1944 2.02891 22.8271 1.82426 22.4465C2.63186 22.3619 2.87392 21.3114 4.0006 21.3937C3.94118 21.1177 3.89277 20.8351 3.85316 20.5524C2.55704 20.4634 2.26217 21.5696 1.40836 21.6185C1.22571 21.229 1.06067 20.8284 0.913235 20.4211C2.09933 20.4767 2.50423 19.3105 3.74974 19.326C3.74533 19.2081 3.74313 19.0901 3.74313 18.9721C3.74313 18.7585 3.74974 18.5448 3.76074 18.3356C2.29958 18.3 1.85507 19.5686 0.591956 19.444C0.475327 19.0411 0.374102 18.6316 0.290481 18.2176C1.88588 18.4179 2.46462 17.0602 3.89937 17.0602C3.96319 16.673 4.04901 16.2924 4.15243 15.9184C2.41181 15.8428 1.80445 17.3741 0.105636 17.0892C0.061625 16.7331 0.0308174 16.3747 0.0110125 16.0097C1.9849 16.2345 2.72428 14.5919 4.52213 14.7922C4.69157 14.3582 4.88742 13.9375 5.10967 13.5325C2.85631 13.1318 2.09053 15.037 -0.0065918 14.7455C0.226666 6.56368 6.8547 0 15.0011 0C23.1475 0 29.7756 6.56368 30.0022 14.7455C27.9051 15.037 27.1393 13.1318 24.8859 13.5325C25.1082 13.9375 25.3041 14.3582 25.4757 14.7922C27.2735 14.5919 28.0129 16.2323 29.9868 16.0097M8.54912 9.6441C7.44445 9.18782 6.10652 9.29243 4.96443 10.0358C4.78839 8.9608 4.21185 8.00596 3.38885 7.42949C3.27662 7.34937 3.15779 7.42504 3.16659 7.55859C3.34043 9.82883 2.02891 11.8031 0.413712 13.5369C2.07732 14.0421 3.49447 11.8765 5.6532 12.6333C6.43 11.4647 7.41364 10.452 8.54912 9.64632M15.0011 8.27082C13.6082 8.27082 12.4419 9.06763 12.136 10.0981C12.1118 10.176 12.1448 10.2295 12.235 10.1872C12.4859 10.0737 12.772 10.018 13.08 10.018C13.6478 10.018 14.1495 10.2295 14.4444 10.5967C14.5764 11.0352 14.5874 11.6673 14.4378 12.0279C14.2045 11.9744 14.1209 11.7919 13.892 11.7919C13.6632 11.7919 13.4871 11.9544 13.0998 11.9544C12.7125 11.9544 12.6663 11.7697 12.4133 11.7697C12.114 11.7697 12.059 12.0813 12.059 12.4352C12.059 14.0043 13.4849 16.1655 15.0033 16.1655C16.5217 16.1655 17.9476 14.0043 17.9476 12.4352C17.9476 12.0835 17.875 11.7808 17.5625 11.7407C17.4063 11.8543 17.2633 11.9566 16.9046 11.9566C16.5173 11.9566 16.4095 11.7942 16.1806 11.7942C15.9055 11.7942 15.9341 12.3817 15.6041 12.4151C15.3862 11.8854 15.3752 11.2066 15.5578 10.5989C15.8527 10.2317 16.3544 10.0202 16.9222 10.0202C17.2325 10.0202 17.5207 10.0759 17.7672 10.1894C17.8574 10.2317 17.8904 10.1805 17.8662 10.1004C17.5603 9.06986 16.3941 8.27305 15.0011 8.27305M17.2193 10.5233C16.8848 10.5233 16.4931 10.6279 16.2466 10.9039C16.2202 10.9795 16.2202 11.0908 16.2576 11.1665C16.8628 10.9573 17.3975 10.9484 17.655 11.2399C17.7936 11.1131 17.8376 10.9996 17.8376 10.8683C17.8376 10.6635 17.633 10.5233 17.2193 10.5233ZM12.3473 11.2399C12.6399 10.9439 13.2539 10.9573 13.8942 11.1954C13.9228 10.8727 13.3529 10.5233 12.783 10.5233C12.3693 10.5233 12.1646 10.6635 12.1646 10.8683C12.1646 10.9996 12.2086 11.1131 12.3473 11.2399ZM21.946 5.92712C20.8458 6.00503 19.8907 6.38785 19.1183 7.02441C19.4462 6.08293 19.8621 5.26163 20.3902 4.46259C18.9907 4.61172 17.82 5.13254 16.9662 6.01615L16.2972 4.24225L17.7826 2.91571L15.7955 2.77326L15.0033 0.903647L14.2111 2.77326L12.224 2.91571L13.7094 4.24225L13.0404 6.01615C12.1866 5.13254 11.0137 4.61172 9.61418 4.46259C10.1423 5.26163 10.5582 6.08293 10.8861 7.02441C10.1137 6.38785 9.15867 6.00503 8.0584 5.92712C8.71856 6.78403 9.3017 7.69881 9.73521 8.68258C9.78362 8.79387 9.88925 8.82948 10.0037 8.77384C11.5088 8.01709 13.2077 7.58975 15.0033 7.58975C16.799 7.58975 18.4978 8.01709 20.0029 8.77384C20.1174 8.83171 20.2208 8.79387 20.2692 8.68258C20.7027 7.70103 21.2859 6.78626 21.946 5.92712ZM24.3468 12.6333C26.5055 11.8765 27.9227 14.0421 29.5863 13.5369C27.9711 11.8031 26.6596 9.83106 26.8312 7.55859C26.8422 7.42504 26.7234 7.34937 26.6112 7.42949C25.7882 8.00596 25.2116 8.9608 25.0356 10.0358C23.8935 9.29243 22.5556 9.18782 21.4509 9.6441C22.5886 10.452 23.5722 11.4647 24.3468 12.631" fill="#006241"/>
<path d="M24.7253 28.4782C25.4031 28.4782 25.973 29.0213 25.973 29.738C25.973 30.4547 25.4053 31 24.7253 31C24.0453 31 23.4798 30.4569 23.4798 29.738C23.4798 29.0191 24.0453 28.4782 24.7253 28.4782ZM24.7253 30.8175C25.2952 30.8175 25.753 30.3501 25.753 29.7402C25.753 29.1304 25.2952 28.663 24.7253 28.663C24.1554 28.663 23.6999 29.1304 23.6999 29.7402C23.6999 30.3501 24.151 30.8175 24.7253 30.8175ZM24.25 29.0013H24.8001C25.1456 29.0013 25.3062 29.1393 25.3062 29.422C25.3062 29.7046 25.139 29.8026 24.9212 29.8248L25.3393 30.4747H25.1016L24.7055 29.8404H24.4678V30.4747H24.2456V29.0013H24.25ZM24.4722 29.6579H24.7011C24.8969 29.6579 25.0884 29.649 25.0884 29.4108C25.0884 29.2083 24.9146 29.1838 24.7627 29.1838H24.4722V29.6579Z" fill="#006241"/>
</g>
<defs>
<clipPath id="clip0_464_1755">
<rect width="30" height="31" fill="white"/>
</clipPath>
</defs>
</svg>
