<svg width="168" height="40" viewBox="0 0 168 40" fill="none" xmlns="http://www.w3.org/2000/svg">
<path d="M20.0001 38.992C30.7161 38.992 39.4032 30.305 39.4032 19.589C39.4032 8.87299 30.7161 0.185949 20.0001 0.185949C9.28413 0.185949 0.597088 8.87299 0.597088 19.589C0.597088 30.305 9.28413 38.992 20.0001 38.992Z" fill="white"/>
<path d="M21.9515 8.57468C20.6602 8.35021 19.3398 8.35021 18.0485 8.57468C17.9516 8.59152 17.9137 8.49683 17.9885 8.44101C18.0558 8.39152 20 6.91139 20 6.91139C20 6.91139 21.944 8.39152 22.0104 8.44101C22.0863 8.49683 22.0484 8.59152 21.9515 8.57468ZM18.5916 18.1823C18.5624 18.1933 18.5357 18.2104 18.5134 18.2323C18.4911 18.2543 18.4737 18.2807 18.4622 18.3097C18.8696 18.6234 19.1506 19.3351 20.0001 19.3351C20.8496 19.3351 21.1305 18.6235 21.5368 18.3097C21.5254 18.2807 21.5081 18.2544 21.486 18.2325C21.4639 18.2105 21.4375 18.1934 21.4084 18.1823C20.9446 18.2731 20.4726 18.3151 20.0001 18.3076C19.5276 18.3152 19.0555 18.2733 18.5916 18.1825V18.1823ZM20 16.9835C19.7642 16.9835 19.7116 16.8941 19.5515 16.8949C19.3978 16.8959 19.1 17.017 19.0358 17.1296C19.0397 17.1864 19.0627 17.2402 19.101 17.2823C19.4463 17.3349 19.601 17.5265 19.9997 17.5265C20.3985 17.5265 20.5538 17.3349 20.8975 17.2823C20.9365 17.2406 20.96 17.1866 20.9638 17.1296C20.8996 17.017 20.6022 16.8959 20.4485 16.8949C20.2886 16.8941 20.2359 16.9835 20 16.9835ZM39.3734 20.6522C39.3481 21.1163 39.307 21.5759 39.2503 22.0311C37.0544 22.3954 36.2681 20.4373 34.0196 20.5353C34.1539 21.016 34.2628 21.5034 34.3458 21.9954C36.2028 21.9943 36.9503 23.7296 39.0135 23.4734C38.906 24.0039 38.7762 24.5267 38.6239 25.0419C36.9923 25.2029 36.4176 23.5808 34.5291 23.6249C34.5438 23.8944 34.5522 24.1659 34.5522 24.4397C34.5522 24.5916 34.548 24.7429 34.5438 24.8934C36.1544 24.8744 36.6786 26.3629 38.2134 26.2935C38.0208 26.8146 37.8067 27.3247 37.5713 27.8241C36.4681 27.763 36.0891 26.3492 34.4111 26.4619C34.3605 26.824 34.2972 27.1834 34.2195 27.5367C35.6786 27.4346 35.9916 28.7772 37.0344 28.8842C36.7691 29.3705 36.4835 29.8431 36.1776 30.3019C35.5586 29.9713 35.0228 28.9713 33.8511 28.9095C33.9711 28.5389 34.0766 28.1624 34.1676 27.78C32.9662 27.7562 31.8163 27.2881 30.9397 26.4662C31.2619 24.6251 28.4049 22.7513 28.4049 21.4029C28.4049 19.9396 29.146 19.129 29.146 17.1553C29.146 15.6899 28.4344 14.1014 27.3628 13.0151C27.163 12.8111 26.9396 12.6316 26.6975 12.4803C27.6828 13.6992 28.4406 15.1457 28.4406 16.8205C28.4406 18.6795 27.5753 19.6606 27.5753 21.3765C27.5753 23.0923 30.0839 24.5767 30.0839 26.3442C30.0839 27.0404 29.8618 27.72 29.1291 29.0548C30.2557 30.1801 31.7229 30.7938 32.6694 30.7938C32.9767 30.7938 33.1419 30.7011 33.2516 30.4591C33.3463 30.2507 33.4362 30.0401 33.5211 29.8275C34.5401 29.8675 35.0075 30.7948 35.5718 31.1654C35.2633 31.5803 34.9384 31.9824 34.5971 32.3718C34.2181 31.9518 33.7096 31.2465 32.9653 31.0506C32.8328 31.3108 32.6906 31.5654 32.5423 31.8161C33.1833 31.9896 33.6223 32.6371 33.9613 33.0613C33.596 33.4403 33.2144 33.8046 32.819 34.1529C32.5716 33.7687 32.1853 33.2782 31.7527 33.0161C31.5937 33.2319 31.4281 33.4425 31.2558 33.6477C31.6243 33.8972 31.9485 34.3439 32.159 34.7087C31.7022 35.0772 31.2285 35.4249 30.7378 35.752C30.4958 33.7814 27.8051 32.4308 28.5304 30.1433C28.2935 30.5465 28.0094 31.0518 28.0094 31.657C28.0094 33.3129 29.7715 34.6257 29.9127 36.271C29.5463 36.4889 29.173 36.6952 28.7925 36.8899C28.7292 35.0814 26.8619 33.1051 26.8619 31.6191C26.8619 29.9633 29.0315 28.3 29.0315 26.3442C29.0315 24.3884 26.5292 23.0334 26.5292 21.3165C26.5292 19.5995 27.5925 18.6122 27.5925 16.412C27.581 15.602 27.402 14.8031 27.0667 14.0656C26.7314 13.328 26.2472 12.6679 25.6444 12.1266C25.4436 11.9459 25.2208 11.7913 24.9811 11.6666C26.097 13.0046 26.7434 14.2192 26.7434 16.0604C26.7434 18.129 25.5243 19.2775 25.5243 21.3039C25.5243 23.3304 27.9792 24.4567 27.9792 26.3442C27.9792 28.2316 25.6928 29.8252 25.6928 31.7644C25.6928 33.5287 27.7076 35.292 27.7382 37.3858C27.2971 37.5773 26.8486 37.7542 26.3918 37.9132C26.6486 35.7972 24.3801 33.6151 24.3801 31.8886C24.3801 30.0011 26.7518 28.38 26.7518 26.3443C26.7518 24.3086 24.3411 23.362 24.3411 21.2734C24.3411 19.1848 25.8213 18.028 25.8213 15.7206C25.8162 14.8666 25.6166 14.0249 25.2378 13.2595C24.8589 12.494 24.3108 11.8249 23.6348 11.3029C23.6075 11.2819 23.5811 11.2609 23.5527 11.2409C23.4306 11.1503 23.3305 11.2597 23.417 11.3675C24.3348 12.5148 24.8254 13.6739 24.8254 15.3908C24.8254 17.5014 23.1263 19.2162 23.1263 21.2627C23.1263 23.6754 25.4086 24.3659 25.4086 26.3451C25.4086 28.3242 22.962 29.9073 22.962 32.0095C22.962 33.9589 25.2785 36.1224 24.88 38.373C24.4159 38.493 23.945 38.5962 23.4673 38.6825C23.901 35.8813 21.6304 33.8686 21.6304 32.037C21.6304 30.0515 24.1642 28.283 24.1642 26.344C24.1642 24.5166 22.3452 23.9186 22.1072 22.047C22.1024 21.9853 22.0846 21.9254 22.055 21.8711C22.0255 21.8168 21.9847 21.7694 21.9355 21.7319C21.8864 21.6944 21.8298 21.6678 21.7696 21.6537C21.7094 21.6396 21.6469 21.6384 21.5862 21.6501C21.2166 21.7175 20.7434 21.9606 20 21.9606C19.2566 21.9606 18.7832 21.7175 18.4125 21.6501C18.3519 21.6385 18.2895 21.6397 18.2294 21.6539C18.1692 21.668 18.1128 21.6947 18.0637 21.7321C18.0146 21.7696 17.974 21.817 17.9445 21.8713C17.915 21.9255 17.8973 21.9854 17.8925 22.047C17.6547 23.9186 15.8356 24.5166 15.8356 26.344C15.8356 28.283 18.3684 30.0515 18.3684 32.037C18.3684 33.8686 16.0977 35.8813 16.5314 38.6825C16.0546 38.5962 15.5841 38.493 15.1197 38.373C14.7219 36.1224 17.0377 33.9591 17.0377 32.0095C17.0377 29.9073 14.5903 28.3242 14.5903 26.344C14.5903 24.3639 16.8725 23.6744 16.8725 21.2616C16.8725 19.2152 15.1734 17.5004 15.1734 15.3897C15.1734 13.6729 15.6641 12.5138 16.583 11.3665C16.6694 11.259 16.5694 11.1495 16.4462 11.2399C16.4187 11.2599 16.3914 11.2809 16.3641 11.3019C15.6884 11.8241 15.1405 12.4933 14.7618 13.2587C14.3832 14.0241 14.1837 14.8657 14.1786 15.7196C14.1786 18.027 15.6587 19.1839 15.6587 21.2724C15.6587 23.3609 13.2481 24.3084 13.2481 26.3433C13.2481 28.3782 15.6187 30.0003 15.6187 31.8876C15.6187 33.6141 13.3513 35.7962 13.6071 37.9122C13.1501 37.7532 12.7018 37.5763 12.2606 37.3848C12.2913 35.291 14.3049 33.5277 14.3049 31.7634C14.3049 29.8243 12.0206 28.2318 12.0206 26.3432C12.0206 24.4546 14.4757 23.3291 14.4757 21.3038C14.4757 19.2785 13.2567 18.1289 13.2567 16.0603C13.2567 14.2191 13.903 13.0044 15.0189 11.6665C14.7789 11.7912 14.5556 11.9458 14.3544 12.1266C13.7518 12.668 13.2677 13.3282 12.9324 14.0657C12.597 14.8032 12.4178 15.602 12.4059 16.412C12.4059 18.6122 13.4713 19.5996 13.4713 21.3165C13.4713 23.0333 10.9691 24.3882 10.9691 26.3442C10.9691 28.3001 13.1392 29.9632 13.1392 31.619C13.1392 33.1043 11.2718 35.0813 11.2086 36.8897C10.8276 36.6951 10.4539 36.4888 10.0875 36.2709C10.2286 34.6253 11.9918 33.3128 11.9918 31.6568C11.9918 31.0516 11.7076 30.5463 11.4697 30.1432C12.1949 32.4306 9.50544 33.7813 9.26329 35.7519C8.77283 35.4256 8.29878 35.0778 7.84114 34.7086C8.05266 34.3433 8.37696 33.8971 8.7443 33.6476C8.57266 33.4423 8.40633 33.2318 8.24747 33.0159C7.81481 33.2781 7.42949 33.7686 7.18114 34.1528C6.78633 33.8044 6.40418 33.4401 6.03886 33.0611C6.37886 32.637 6.81684 31.9895 7.45785 31.8159C7.30949 31.5653 7.16882 31.3102 7.03582 31.0505C6.29051 31.2463 5.78203 31.9516 5.40418 32.3716C5.06308 31.9822 4.73743 31.5801 4.42722 31.1653C4.99253 30.7947 5.45886 29.8673 6.47886 29.8273C6.56418 30.04 6.65401 30.2505 6.74835 30.459C6.85899 30.701 7.02418 30.7937 7.33063 30.7937C8.2781 30.7937 9.74557 30.18 10.8719 29.0547C10.1377 27.7199 9.91608 27.0409 9.91608 26.344C9.91608 24.5766 12.4257 23.0909 12.4257 21.3763C12.4257 19.6618 11.5604 18.6794 11.5604 16.8204C11.5604 15.1456 12.3172 13.6991 13.3035 12.4801C13.0614 12.6314 12.8381 12.8109 12.6384 13.0149C11.5646 14.1013 10.8535 15.6897 10.8535 17.1552C10.8535 19.1289 11.5935 19.94 11.5935 21.4028C11.5935 22.7511 8.7376 24.6249 9.06076 26.4661C8.18418 27.2879 7.03426 27.756 5.83291 27.7799C5.92338 28.163 6.02861 28.5395 6.14861 28.9094C4.97595 28.9715 4.43911 29.9715 3.82114 30.3018C3.51734 29.8418 3.23173 29.3692 2.9643 28.8841C4.00747 28.7766 4.32127 27.4344 5.77924 27.5366C5.70228 27.1829 5.6381 26.8239 5.58759 26.4618C3.91063 26.3491 3.52962 27.7629 2.42747 27.8239C2.19312 27.3253 1.97949 26.8151 1.78658 26.2935C3.32139 26.364 3.84456 24.8744 5.45519 24.8934C5.44987 24.7429 5.44785 24.5923 5.44785 24.4397C5.44785 24.1659 5.4562 23.8944 5.47101 23.6249C3.58253 23.5808 3.00772 25.2029 1.37506 25.0419C1.22443 24.5271 1.09494 24.0043 0.986582 23.4734C3.04873 23.7291 3.79671 21.9943 5.65316 21.9954C5.73557 21.5031 5.84485 21.0157 5.98051 20.5353C3.73089 20.4373 2.94456 22.3954 0.749747 22.0311C0.691772 21.5765 0.651772 21.1163 0.626582 20.6522C3.17924 20.9385 4.1362 18.8394 6.46051 19.0963C6.67834 18.5435 6.93205 18.0055 7.22 17.4857C4.3062 16.974 3.31671 19.4097 0.604937 19.0362C0.748565 13.988 2.8549 9.19465 6.47642 5.67471C10.0979 2.15476 14.9492 0.185596 19.9995 0.185596C25.0498 0.185596 29.9011 2.15476 33.5226 5.67471C37.1441 9.19465 39.2504 13.988 39.3941 19.0362C36.6813 19.41 35.6918 16.974 32.7778 17.4857C33.0664 18.0054 33.3207 18.5434 33.539 19.0963C35.8638 18.8394 36.8197 20.9385 39.3734 20.6522ZM11.6582 12.5149C10.2308 11.9306 8.50114 12.0653 7.02316 13.0149C6.79532 11.6401 6.05063 10.42 4.98734 9.68354C4.95997 9.65941 4.92573 9.64445 4.88942 9.64078C4.85312 9.6371 4.81657 9.64488 4.78492 9.66303C4.75326 9.68119 4.72809 9.7088 4.71292 9.74199C4.69776 9.77518 4.69338 9.81229 4.70038 9.8481C4.9257 12.7514 3.22772 15.2737 1.14025 17.4895C3.29215 18.1358 5.12367 15.3662 7.91316 16.3337C8.91663 14.8417 10.1861 13.5473 11.6582 12.5149ZM20 10.7595C18.1989 10.7595 16.6904 11.7785 16.2946 13.0943C16.2641 13.1956 16.3051 13.2606 16.4219 13.2082C16.7672 13.06 17.14 12.9867 17.5157 12.993C18.2505 12.993 18.8978 13.2635 19.28 13.732C19.4505 14.291 19.4642 15.1005 19.2727 15.5615C18.9705 15.4942 18.861 15.2595 18.5663 15.2595C18.2716 15.2595 18.042 15.4678 17.541 15.4678C17.04 15.4678 16.981 15.231 16.6527 15.231C16.2652 15.231 16.1937 15.63 16.1937 16.0805C16.1937 18.087 18.038 20.8492 20.0001 20.8492C21.9623 20.8492 23.8063 18.087 23.8063 16.0805C23.8063 15.63 23.7138 15.2451 23.3085 15.1922C23.0703 15.388 22.7668 15.4865 22.459 15.4678C21.9578 15.4678 21.82 15.2595 21.5242 15.2595C21.1684 15.2595 21.2042 16.011 20.7799 16.0532C20.4994 15.3752 20.4847 14.5068 20.7194 13.732C21.102 13.2637 21.7495 12.993 22.4842 12.993C22.8596 12.9863 23.2321 13.0597 23.577 13.2082C23.6937 13.2608 23.7348 13.1956 23.7053 13.0943C23.3095 11.778 21.801 10.7595 20 10.7595ZM22.8672 13.6386C22.4357 13.6386 21.9294 13.7713 21.6104 14.1259C21.5744 14.2359 21.5793 14.3551 21.6241 14.4618C22.4072 14.1934 23.0989 14.1833 23.4315 14.5556C23.5044 14.4995 23.5635 14.4274 23.6042 14.3449C23.6449 14.2624 23.6661 14.1717 23.6663 14.0797C23.6665 13.8181 23.4022 13.6381 22.8673 13.6381L22.8672 13.6386ZM16.5682 14.5556C16.9452 14.1776 17.742 14.1934 18.5682 14.4986C18.604 14.0871 17.8682 13.6386 17.1324 13.6386C16.5976 13.6386 16.3323 13.8186 16.3323 14.0797C16.3326 14.1718 16.354 14.2625 16.3949 14.3449C16.4359 14.4273 16.4952 14.4992 16.5684 14.5551L16.5682 14.5556ZM28.9803 7.76203C27.645 7.83648 26.3665 8.3272 25.3243 9.16532C25.7309 8.00818 26.2835 6.90765 26.9686 5.89038C25.1601 6.0819 23.6453 6.74506 22.5411 7.8757L21.6757 5.60987L23.5958 3.91367L21.0253 3.73228L20 1.34278L18.9747 3.73228L16.404 3.91342L18.323 5.60962L17.4589 7.87608C16.3535 6.74544 14.8397 6.08228 13.0303 5.89076C13.7154 6.90821 14.2684 8.00869 14.6758 9.1657C13.6333 8.32735 12.3544 7.83649 11.0186 7.76203C11.8808 8.84464 12.6092 10.0273 13.1882 11.2843C13.2007 11.317 13.2202 11.3464 13.2454 11.3706C13.2706 11.3948 13.3008 11.4131 13.334 11.4242C13.3671 11.4353 13.4023 11.4389 13.437 11.4347C13.4717 11.4305 13.505 11.4187 13.5346 11.4001C15.5446 10.405 17.7572 9.88735 20 9.88735C22.2428 9.88735 24.4554 10.405 26.4654 11.4001C26.4949 11.4187 26.5282 11.4305 26.5628 11.4347C26.5974 11.4388 26.6325 11.4353 26.6656 11.4242C26.6986 11.4131 26.7288 11.3948 26.7539 11.3706C26.779 11.3464 26.7984 11.3169 26.8108 11.2843C27.3893 10.0271 28.1178 8.8444 28.9803 7.76203ZM32.0847 16.3341C34.8753 15.3666 36.7071 18.1362 38.8587 17.4899C36.7713 15.2747 35.0739 12.7518 35.2975 9.84848C35.3049 9.81288 35.3009 9.77585 35.2861 9.74264C35.2712 9.70943 35.2464 9.68173 35.2149 9.66344C35.1835 9.64516 35.1471 9.63722 35.1109 9.64076C35.0747 9.6443 35.0406 9.65914 35.0133 9.68316C33.95 10.42 33.2047 11.6401 32.9753 13.0149C31.4973 12.0656 29.7687 11.9306 28.3403 12.5149C29.8125 13.5471 31.0818 14.8417 32.0847 16.3341Z" fill="#00754A"/>
<path d="M51.7841 34H48.9588V25.2727H51.8736C52.7287 25.2727 53.4631 25.4474 54.0767 25.7969C54.6903 26.1435 55.1605 26.642 55.4872 27.2926C55.8168 27.9403 55.9815 28.7173 55.9815 29.6236C55.9815 30.5327 55.8153 31.3139 55.483 31.9673C55.1534 32.6207 54.6761 33.1236 54.0511 33.4759C53.4261 33.8253 52.6705 34 51.7841 34ZM50.2756 32.8494H51.7116C52.3764 32.8494 52.929 32.7244 53.3693 32.4744C53.8097 32.2216 54.1392 31.8565 54.358 31.3793C54.5767 30.8991 54.6861 30.3139 54.6861 29.6236C54.6861 28.9389 54.5767 28.358 54.358 27.8807C54.142 27.4034 53.8196 27.0412 53.3906 26.794C52.9616 26.5469 52.429 26.4233 51.7926 26.4233H50.2756V32.8494ZM57.379 34V25.2727H62.8506V26.4062H58.6957V29.0653H62.565V30.1946H58.6957V32.8665H62.9017V34H57.379ZM69.1294 27.5653C69.0839 27.1619 68.8964 26.8494 68.5669 26.6278C68.2373 26.4034 67.8226 26.2912 67.3226 26.2912C66.9646 26.2912 66.6549 26.348 66.3936 26.4616C66.1322 26.5724 65.9291 26.7259 65.7842 26.9219C65.6422 27.1151 65.5711 27.3352 65.5711 27.5824C65.5711 27.7898 65.6194 27.9687 65.716 28.1193C65.8155 28.2699 65.9447 28.3963 66.1038 28.4986C66.2657 28.598 66.439 28.6818 66.6237 28.75C66.8084 28.8153 66.9859 28.8693 67.1564 28.9119L68.0086 29.1335C68.287 29.2017 68.5726 29.294 68.8652 29.4105C69.1578 29.527 69.4291 29.6804 69.6791 29.8707C69.9291 30.0611 70.1308 30.2969 70.2842 30.5781C70.4405 30.8594 70.5186 31.196 70.5186 31.5881C70.5186 32.0824 70.3907 32.5213 70.1351 32.9048C69.8822 33.2884 69.5143 33.5909 69.0314 33.8125C68.5513 34.0341 67.9703 34.1449 67.2885 34.1449C66.6351 34.1449 66.0697 34.0412 65.5924 33.8338C65.1152 33.6264 64.7416 33.3324 64.4717 32.9517C64.2018 32.5682 64.0527 32.1136 64.0243 31.5881H65.3453C65.3709 31.9034 65.4731 32.1662 65.6521 32.3764C65.8339 32.5838 66.0655 32.7386 66.3467 32.8409C66.6308 32.9403 66.9419 32.9901 67.2799 32.9901C67.6521 32.9901 67.9831 32.9318 68.2728 32.8153C68.5655 32.696 68.7956 32.5312 68.9632 32.321C69.1308 32.108 69.2146 31.8594 69.2146 31.5753C69.2146 31.3168 69.1407 31.1051 68.993 30.9403C68.8481 30.7756 68.6507 30.6392 68.4007 30.5312C68.1535 30.4233 67.8737 30.3281 67.5612 30.2457L66.5299 29.9645C65.8311 29.7741 65.2771 29.4943 64.868 29.125C64.4618 28.7557 64.2586 28.267 64.2586 27.6591C64.2586 27.1562 64.395 26.7173 64.6677 26.3423C64.9405 25.9673 65.3098 25.6761 65.7757 25.4688C66.2416 25.2585 66.7672 25.1534 67.3524 25.1534C67.9433 25.1534 68.4646 25.2571 68.9163 25.4645C69.3709 25.6719 69.7288 25.9574 69.9902 26.321C70.2515 26.6818 70.3879 27.0966 70.3993 27.5653H69.1294ZM73.1689 25.2727V34H71.8521V25.2727H73.1689ZM80.7527 28.0298C80.6703 27.7713 80.5595 27.5398 80.4203 27.3352C80.284 27.1278 80.1206 26.9517 79.9303 26.8068C79.7399 26.6591 79.5226 26.5469 79.2783 26.4702C79.0368 26.3935 78.7712 26.3551 78.4814 26.3551C77.9899 26.3551 77.5467 26.4815 77.1519 26.7344C76.757 26.9872 76.4445 27.358 76.2144 27.8466C75.9871 28.3324 75.8735 28.9276 75.8735 29.6321C75.8735 30.3395 75.9885 30.9375 76.2186 31.4261C76.4487 31.9148 76.7641 32.2855 77.1646 32.5384C77.5652 32.7912 78.0212 32.9176 78.5325 32.9176C79.007 32.9176 79.4203 32.821 79.7726 32.6278C80.1277 32.4347 80.4019 32.1619 80.595 31.8097C80.7911 31.4545 80.8891 31.0369 80.8891 30.5568L81.23 30.6207H78.7328V29.5341H82.1632V30.527C82.1632 31.2599 82.007 31.8963 81.6945 32.4361C81.3848 32.973 80.9558 33.3878 80.4075 33.6804C79.8621 33.973 79.2371 34.1193 78.5325 34.1193C77.7428 34.1193 77.0496 33.9375 76.453 33.5739C75.8592 33.2102 75.3962 32.6946 75.0638 32.027C74.7314 31.3565 74.5652 30.5611 74.5652 29.6406C74.5652 28.9446 74.6618 28.3196 74.855 27.7656C75.0482 27.2116 75.3195 26.7415 75.6689 26.3551C76.0212 25.9659 76.4345 25.669 76.909 25.4645C77.3862 25.2571 77.9075 25.1534 78.4729 25.1534C78.9445 25.1534 79.3834 25.223 79.7896 25.3622C80.1987 25.5014 80.5624 25.6989 80.8806 25.9545C81.2016 26.2102 81.4672 26.5142 81.6774 26.8665C81.8877 27.2159 82.0297 27.6037 82.1036 28.0298H80.7527ZM90.6388 25.2727V34H89.4286L84.9925 27.5994H84.9115V34H83.5947V25.2727H84.8135L89.2538 31.6818H89.3348V25.2727H90.6388ZM100.015 27.5653C99.9699 27.1619 99.7824 26.8494 99.4528 26.6278C99.1233 26.4034 98.7085 26.2912 98.2085 26.2912C97.8505 26.2912 97.5409 26.348 97.2795 26.4616C97.0182 26.5724 96.815 26.7259 96.6701 26.9219C96.5281 27.1151 96.4571 27.3352 96.4571 27.5824C96.4571 27.7898 96.5054 27.9687 96.602 28.1193C96.7014 28.2699 96.8307 28.3963 96.9897 28.4986C97.1517 28.598 97.325 28.6818 97.5096 28.75C97.6943 28.8153 97.8718 28.8693 98.0423 28.9119L98.8946 29.1335C99.173 29.2017 99.4585 29.294 99.7511 29.4105C100.044 29.527 100.315 29.6804 100.565 29.8707C100.815 30.0611 101.017 30.2969 101.17 30.5781C101.326 30.8594 101.405 31.196 101.405 31.5881C101.405 32.0824 101.277 32.5213 101.021 32.9048C100.768 33.2884 100.4 33.5909 99.9173 33.8125C99.4372 34.0341 98.8562 34.1449 98.1744 34.1449C97.521 34.1449 96.9557 34.0412 96.4784 33.8338C96.0011 33.6264 95.6275 33.3324 95.3576 32.9517C95.0878 32.5682 94.9386 32.1136 94.9102 31.5881H96.2312C96.2568 31.9034 96.3591 32.1662 96.538 32.3764C96.7199 32.5838 96.9514 32.7386 97.2326 32.8409C97.5167 32.9403 97.8278 32.9901 98.1659 32.9901C98.538 32.9901 98.869 32.9318 99.1588 32.8153C99.4514 32.696 99.6815 32.5312 99.8491 32.321C100.017 32.108 100.101 31.8594 100.101 31.5753C100.101 31.3168 100.027 31.1051 99.8789 30.9403C99.7341 30.7756 99.5366 30.6392 99.2866 30.5312C99.0395 30.4233 98.7596 30.3281 98.4471 30.2457L97.4159 29.9645C96.717 29.7741 96.163 29.4943 95.7539 29.125C95.3477 28.7557 95.1446 28.267 95.1446 27.6591C95.1446 27.1562 95.2809 26.7173 95.5537 26.3423C95.8264 25.9673 96.1957 25.6761 96.6616 25.4688C97.1275 25.2585 97.6531 25.1534 98.2383 25.1534C98.8292 25.1534 99.3505 25.2571 99.8022 25.4645C100.257 25.6719 100.615 25.9574 100.876 26.321C101.137 26.6818 101.274 27.0966 101.285 27.5653H100.015ZM102.065 25.2727H103.56L105.84 29.2401H105.934L108.214 25.2727H109.71L106.543 30.5739V34H105.231V30.5739L102.065 25.2727ZM115.473 27.5653C115.427 27.1619 115.24 26.8494 114.91 26.6278C114.581 26.4034 114.166 26.2912 113.666 26.2912C113.308 26.2912 112.998 26.348 112.737 26.4616C112.476 26.5724 112.273 26.7259 112.128 26.9219C111.986 27.1151 111.915 27.3352 111.915 27.5824C111.915 27.7898 111.963 27.9687 112.059 28.1193C112.159 28.2699 112.288 28.3963 112.447 28.4986C112.609 28.598 112.782 28.6818 112.967 28.75C113.152 28.8153 113.329 28.8693 113.5 28.9119L114.352 29.1335C114.63 29.2017 114.916 29.294 115.209 29.4105C115.501 29.527 115.773 29.6804 116.023 29.8707C116.273 30.0611 116.474 30.2969 116.628 30.5781C116.784 30.8594 116.862 31.196 116.862 31.5881C116.862 32.0824 116.734 32.5213 116.478 32.9048C116.226 33.2884 115.858 33.5909 115.375 33.8125C114.895 34.0341 114.314 34.1449 113.632 34.1449C112.978 34.1449 112.413 34.0412 111.936 33.8338C111.459 33.6264 111.085 33.3324 110.815 32.9517C110.545 32.5682 110.396 32.1136 110.368 31.5881H111.689C111.714 31.9034 111.817 32.1662 111.996 32.3764C112.177 32.5838 112.409 32.7386 112.69 32.8409C112.974 32.9403 113.285 32.9901 113.623 32.9901C113.996 32.9901 114.327 32.9318 114.616 32.8153C114.909 32.696 115.139 32.5312 115.307 32.321C115.474 32.108 115.558 31.8594 115.558 31.5753C115.558 31.3168 115.484 31.1051 115.336 30.9403C115.192 30.7756 114.994 30.6392 114.744 30.5312C114.497 30.4233 114.217 30.3281 113.905 30.2457L112.873 29.9645C112.175 29.7741 111.621 29.4943 111.211 29.125C110.805 28.7557 110.602 28.267 110.602 27.6591C110.602 27.1562 110.738 26.7173 111.011 26.3423C111.284 25.9673 111.653 25.6761 112.119 25.4688C112.585 25.2585 113.111 25.1534 113.696 25.1534C114.287 25.1534 114.808 25.2571 115.26 25.4645C115.714 25.6719 116.072 25.9574 116.334 26.321C116.595 26.6818 116.731 27.0966 116.743 27.5653H115.473ZM117.765 26.4062V25.2727H124.519V26.4062H121.796V34H120.484V26.4062H117.765ZM125.772 34V25.2727H131.244V26.4062H127.089V29.0653H130.958V30.1946H127.089V32.8665H131.295V34H125.772ZM132.762 25.2727H134.36L137.139 32.0568H137.241L140.02 25.2727H141.618V34H140.365V27.6847H140.284L137.71 33.9872H136.67L134.096 27.6804H134.015V34H132.762V25.2727Z" fill="#00754A"/>
<path d="M124.93 13.4064C124.93 16.9117 122.973 18.787 119.316 18.787C115.727 18.787 113.702 16.8604 113.702 13.4397V7.23034H117.738V13.2429C117.738 14.9061 118.196 15.6449 119.282 15.6449C120.369 15.6449 120.891 14.9727 120.891 13.0724V7.23034H124.926L124.93 13.4064Z" fill="#00754A"/>
<path d="M67.0629 10.1022V18.5569H62.9866V10.1022H59.5742V7.23034H70.4753V10.1022H67.0629Z" fill="#00754A"/>
<path d="M84.0244 18.5556H79.9677L79.2851 16.4765H75.457L74.7333 18.5556H70.6699L74.7919 7.23041H79.9521L84.0244 18.5556ZM76.3388 13.6933H78.374L77.3427 9.81244L76.3388 13.6933Z" fill="#00754A"/>
<path d="M138.01 17.6754L136.789 14.7384C136.067 15.2817 135.338 15.7655 134.155 15.7655C132.557 15.7655 131.493 14.4487 131.493 12.8465C131.493 11.2221 132.43 9.85824 134.093 9.85824C135.145 9.85824 136.06 10.3808 136.793 10.9671L137.999 8.0966C136.596 7.35931 135.032 6.9839 133.447 7.00442C130.022 7.00442 127.418 9.34818 127.418 12.816C127.418 16.4765 129.95 18.7911 133.562 18.7911C135.548 18.787 136.945 18.3254 138.01 17.6754Z" fill="#00754A"/>
<path d="M147.175 18.5569L144.623 14.4279V18.5569H140.663V7.23034H144.623V11.3773L147.014 7.23034H151.437L147.719 12.8118L151.913 18.5569H147.175Z" fill="#00754A"/>
<path d="M52.7624 18.787C55.3321 18.787 57.9932 17.8722 57.9932 14.9726C57.9932 12.3614 55.7756 11.6462 54.0375 11.2747C52.7319 10.9975 52.1054 10.8589 52.1054 10.3378C52.1054 9.64477 52.9855 9.59071 53.4568 9.59071C54.6321 9.59071 55.7271 10.0703 56.6696 10.6441L57.7257 8.06332C56.3397 7.46871 54.6765 7.00024 53.1033 7.00024C50.4394 7.00024 48.3534 8.28647 48.3534 10.8811C48.3534 13.0031 49.964 13.8208 51.7395 14.2602C52.9758 14.5568 53.7575 14.6511 53.7575 15.2595C53.7575 15.868 53.1532 16.0468 52.5697 16.0468C51.3663 16.0295 50.2049 15.6016 49.2779 14.834L48 17.3289C49.4159 18.2592 51.0683 18.7651 52.7624 18.787Z" fill="#00754A"/>
<path d="M157.913 18.787C160.481 18.787 163.144 17.8722 163.144 14.9726C163.144 12.3614 160.926 11.6462 159.187 11.2747C157.881 10.9975 157.254 10.8589 157.254 10.3378C157.254 9.64477 158.136 9.59071 158.607 9.59071C159.781 9.59071 160.878 10.0703 161.819 10.6441L162.875 8.06332C161.489 7.46871 159.826 7.00024 158.254 7.00024C155.59 7.00024 153.504 8.28647 153.504 10.8811C153.504 13.0031 155.114 13.8208 156.89 14.2602C158.119 14.5638 158.908 14.6552 158.908 15.2637C158.908 15.8722 158.304 16.051 157.72 16.051C156.517 16.0326 155.357 15.6032 154.433 14.834L153.153 17.3289C154.568 18.2584 156.22 18.7643 157.913 18.787Z" fill="#00754A"/>
<path d="M92.4904 7.23479C95.0848 7.2349 96.9132 8.44353 96.9132 11.1157C96.9131 12.4225 96.1603 13.8153 94.7745 14.3227L97.5753 18.5551H93.338L91.298 15.1957H90.3058V18.5551H86.379V7.23479H92.4904ZM90.299 9.93987V12.309H91.6896C92.4668 12.3088 92.9365 11.8778 92.9367 11.1352V11.0971C92.9365 10.3198 92.4527 9.93987 91.7072 9.93987H90.299Z" fill="#00754A"/>
<path d="M106.745 7.23041C109.29 7.23043 110.734 8.31425 110.734 10.2421C110.734 11.6282 110.01 12.4554 108.537 12.7714C110.041 12.8934 110.975 13.8874 110.975 15.3691C110.975 17.5022 109.483 18.5566 106.488 18.5566H100.286V7.23041H106.745ZM104.171 13.9775V16.0996H105.611C106.408 16.0994 106.892 15.7124 106.892 15.0458V15.0156C106.892 14.3186 106.394 13.9775 105.625 13.9775H104.171ZM104.171 11.7031H105.579C106.359 11.7031 106.833 11.3344 106.833 10.7011V10.6718C106.833 10.0093 106.345 9.68549 105.593 9.68549H104.171V11.7031Z" fill="#00754A"/>
<path d="M166.272 6.99997C167.226 6.99997 168 7.77296 168 8.72654C168 9.68032 167.226 10.4541 166.272 10.4541C165.814 10.4563 165.373 10.2749 165.05 9.95017C164.726 9.62539 164.546 9.18412 164.55 8.72556C164.546 8.26739 164.727 7.82715 165.051 7.5029C165.374 7.1787 165.814 6.99743 166.272 6.99997ZM166.999 7.45701C166.553 7.19327 165.998 7.19314 165.552 7.45701C165.105 7.72096 164.838 8.20722 164.854 8.72556C164.842 9.11085 164.986 9.48479 165.253 9.76267C165.52 10.0405 165.888 10.1993 166.273 10.2021C166.659 10.1989 167.027 10.0402 167.295 9.76267C167.563 9.485 167.708 9.11115 167.697 8.72556C167.713 8.20723 167.445 7.72096 166.999 7.45701ZM166.376 7.71579C166.854 7.71579 167.079 7.90429 167.079 8.29099C167.079 8.67736 166.847 8.81006 166.547 8.8447L167.128 9.7363H166.798L166.243 8.86814H165.922V9.73337H165.614V7.71579H166.376ZM165.923 8.61326H166.239C166.516 8.61324 166.776 8.59948 166.776 8.27439C166.776 7.99736 166.534 7.96486 166.325 7.96482H165.923V8.61326Z" fill="#00754A"/>
</svg>
